name C:\Users\u0101727\Documents\MyRepositories\upper-imu-dc\Results\main_tracking\Case_45\kinematics.mot
datacolumns 10
datarows 42
range 2.00000000 2.24600000
endheader 
time	clav_prot	clav_elev	scapula_abduction	scapula_elevation	scapula_upward_rot	scapula_winging	plane_elv	shoulder_elv	axial_rot	
          2.00000000	        -24.86748117	          4.20888147	          9.53391457	         -4.53131929	         51.68408287	         -4.96971122	         61.31768372	         71.12283706	        -20.96728633	
          2.00600000	        -24.95279356	          4.24729502	          9.57842984	         -4.52520853	         51.93089890	         -5.00735348	         61.18773784	         71.31040546	        -20.86174026	
          2.01200000	        -25.04002660	          4.28349585	          9.62012759	         -4.52041978	         52.17760491	         -5.04422972	         61.05714178	         71.49768517	        -20.75122918	
          2.01800000	        -25.12900310	          4.31759895	          9.65908868	         -4.51684693	         52.42396088	         -5.08035546	         60.92603770	         71.68466854	        -20.63611954	
          2.02400000	        -25.21954794	          4.34972569	          9.69539406	         -4.51438136	         52.66973354	         -5.11574855	         60.79455794	         71.87134169	        -20.51682407	
          2.03000000	        -25.31149000	          4.38000250	          9.72912481	         -4.51291314	         52.91470010	         -5.15042923	         60.66282441	         72.05768386	        -20.39379699	
          2.03600000	        -25.40466372	          4.40855957	          9.76036248	         -4.51233219	         53.15865136	         -5.18442009	         60.53094803	         72.24366708	        -20.26752836	
          2.04200000	        -25.49891019	          4.43552941	          9.78918956	         -4.51252931	         53.40139424	         -5.21774588	         60.39902827	         72.42925622	        -20.13853786	
          2.04800000	        -25.59407786	          4.46104529	          9.81569016	         -4.51339730	         53.64275345	         -5.25043325	         60.26715291	         72.61440961	        -20.00736715	
          2.05400000	        -25.69002307	          4.48523977	          9.83995043	         -4.51483194	         53.88257271	         -5.28251036	         60.13539807	         72.79907997	        -19.87457161	
          2.06000000	        -25.78661043	          4.50824323	          9.86205886	         -4.51673294	         54.12071529	         -5.31400648	         60.00382860	         72.98321576	        -19.74071098	
          2.06600000	        -25.88371320	          4.53018248	          9.88210604	         -4.51900475	         54.35706422	         -5.34495162	         59.87249882	         73.16676282	        -19.60633928	
          2.07200000	        -25.98121373	          4.55117961	          9.90018419	         -4.52155727	         54.59152210	         -5.37537609	         59.74145352	         73.34966611	        -19.47199410	
          2.07800000	        -26.07900393	          4.57135096	          9.91638611	         -4.52430636	         54.82401071	         -5.40531022	         59.61072922	         73.53187174	        -19.33818555	
          2.08400000	        -26.17698598	          4.59080659	          9.93080376	         -4.52717421	         55.05447043	         -5.43478416	         59.48035562	         73.71332877	        -19.20538523	
          2.09000000	        -26.27507307	          4.60964985	          9.94352650	         -4.53008938	         55.28285972	         -5.46382777	         59.35035692	         73.89399095	        -19.07401570	
          2.09600000	        -26.37319030	          4.62797720	          9.95463911	         -4.53298692	         55.50915450	         -5.49247062	         59.22075311	         74.07381818	        -18.94444100	
          2.10200000	        -26.47127551	          4.64587874	          9.96421977	         -4.53580790	         55.73334769	         -5.52074214	         59.09156104	         74.25277754	        -18.81695822	
          2.10800000	        -26.56927992	          4.66343881	          9.97233826	         -4.53849888	         55.95544858	         -5.54867191	         58.96279502	         74.43084398	        -18.69179176	
          2.11400000	        -26.66716860	          4.68073712	          9.97905448	         -4.54101101	         56.17548231	         -5.57629000	         58.83446722	         74.60800062	        -18.56908953	
          2.12000000	        -26.76492057	          4.69785018	          9.98441733	         -4.54329896	         56.39348922	         -5.60362741	         58.70658756	         74.78423849	        -18.44892195	
          2.12600000	        -26.86252826	          4.71485293	          9.98846446	         -4.54531959	         56.60952390	         -5.63071651	         58.57916322	         74.95955628	        -18.33128384	
          2.13200000	        -26.95999672	          4.73182062	          9.99122244	         -4.54703049	         56.82365411	         -5.65759145	         58.45219773	         75.13395961	        -18.21609869	
          2.13800000	        -27.05734202	          4.74883026	          9.99270780	         -4.54838874	         57.03595924	         -5.68428842	         58.32568976	         75.30746042	        -18.10322623	
          2.14400000	        -27.15458944	          4.76596191	          9.99292856	         -4.54934979	         57.24652851	         -5.71084573	         58.19963155	         75.48007627	        -17.99247153	
          2.15000000	        -27.25177129	          4.78329937	          9.99188610	         -4.54986670	         57.45545885	         -5.73730374	         58.07400734	         75.65182971	        -17.88359550	
          2.15600000	        -27.34892459	          4.80093042	          9.98957737	         -4.54988980	         57.66285269	         -5.76370452	         57.94879174	         75.82274768	        -17.77632577	
          2.16200000	        -27.44608875	          4.81894636	          9.98599703	         -4.54936665	         57.86881556	         -5.79009138	         57.82394831	         75.99286095	        -17.67036754	
          2.16800000	        -27.54330354	          4.83744112	          9.98113951	         -4.54824258	         58.07345388	         -5.81650822	         57.69942841	         76.16220357	        -17.56541345	
          2.17400000	        -27.64060716	          4.85650999	          9.97500079	         -4.54646138	         58.27687280	         -5.84299887	         57.57517067	         76.33081229	        -17.46115271	
          2.18000000	        -27.73803487	          4.87624813	          9.96757979	         -4.54396614	         58.47917441	         -5.86960631	         57.45110084	         76.49872589	        -17.35727895	
          2.18600000	        -27.83561782	          4.89674915	          9.95887936	         -4.54070025	         58.68045628	         -5.89637208	         57.32713239	         76.66598444	        -17.25349710	
          2.19200000	        -27.93338235	          4.91810369	          9.94890699	         -4.53660831	         58.88081022	         -5.92333566	         57.20316758	         76.83262849	        -17.14952945	
          2.19800000	        -28.03134958	          4.94039832	          9.93767491	         -4.53163685	         59.08032148	         -5.95053403	         57.07909924	         76.99869819	        -17.04512066	
          2.20400000	        -28.12953529	          4.96371470	          9.92520012	         -4.52573501	         59.27906814	         -5.97800135	         56.95481297	         77.16423250	        -16.94004215	
          2.21000000	        -28.22794994	          4.98812889	          9.91150398	         -4.51885496	         59.47712061	         -6.00576873	         56.83018976	         77.32926843	        -16.83409580	
          2.21600000	        -28.32659890	          5.01371100	          9.89661163	         -4.51095229	         59.67454136	         -6.03386406	         56.70510885	         77.49384053	        -16.72711676	
          2.22200000	        -28.42548296	          5.04052479	          9.88055100	         -4.50198630	         59.87138462	         -6.06231203	         56.57945080	         77.65798050	        -16.61897549	
          2.22800000	        -28.52459900	          5.06862748	          9.86335143	         -4.49192025	         60.06769626	         -6.09113408	         56.45310077	         77.82171704	        -16.50957818	
          2.23400000	        -28.62394097	          5.09806935	          9.84504195	         -4.48072170	         60.26351366	         -6.12034850	         56.32595164	         77.98507582	        -16.39886612	
          2.24000000	        -28.72350109	          5.12889333	          9.82564925	         -4.46836297	         60.45886570	         -6.14997051	         56.19790706	         78.14807963	        -16.28681367	
          2.24600000	        -28.82327115	          5.16113449	          9.80519545	         -4.45482164	         60.65377275	         -6.18001236	         56.06888417	         78.31074851	        -16.17342507	
